<svg width="977" height="188" viewBox="0 0 977 188" fill="none" xmlns="http://www.w3.org/2000/svg">
<path d="M48.6 43C57.5333 43 65.6 44.5333 72.8 47.6C80 50.5333 85.6666 54.6666 89.8 60C93.9333 65.2 96 71 96 77.4V145.6C96 146.267 95.7333 146.867 95.2 147.4C94.8 147.8 94.2666 148 93.6 148H65.2C64.5333 148 63.9333 147.8 63.4 147.4C63 146.867 62.8 146.267 62.8 145.6V138.6C62.8 138.067 62.6666 137.8 62.4 137.8C62.1333 137.667 61.8666 137.867 61.6 138.4C56.5333 145.867 47.8666 149.6 35.6 149.6C24.9333 149.6 16.4 147.133 9.99998 142.2C3.73331 137.133 0.599976 129.733 0.599976 120C0.599976 109.733 4.13331 101.8 11.2 96.2C18.4 90.6 28.8 87.8 42.4 87.8H61.8C62.4666 87.8 62.8 87.4666 62.8 86.8V83C62.8 79.4 61.6 76.6 59.2 74.6C56.8 72.4666 53.4666 71.4 49.2 71.4C46 71.4 43.2 72 40.8 73.2C38.5333 74.4 37.0666 75.9333 36.4 77.8C35.7333 79.2666 34.8 79.9333 33.6 79.8L4.79998 76C3.19998 75.7333 2.39998 75.1333 2.39998 74.2C2.93331 68.3333 5.19998 63.0666 9.19998 58.4C13.3333 53.6 18.8 49.8666 25.6 47.2C32.5333 44.4 40.2 43 48.6 43ZM45.4 125.8C50.4666 125.8 54.6 124.533 57.8 122C61.1333 119.333 62.8 115.867 62.8 111.6V106.8C62.8 106.133 62.4666 105.8 61.8 105.8H49.8C44.7333 105.8 40.8 106.667 38 108.4C35.3333 110.133 34 112.733 34 116.2C34 119.133 35 121.467 37 123.2C39 124.933 41.8 125.8 45.4 125.8Z" fill="#1F685C"/>
<path d="M175.231 47C175.231 46.3333 175.431 45.8 175.831 45.4C176.365 44.8666 176.965 44.6 177.631 44.6H206.031C206.698 44.6 207.231 44.8666 207.631 45.4C208.165 45.8 208.431 46.3333 208.431 47V136.4C208.431 154.667 203.165 167.733 192.631 175.6C182.098 183.467 168.765 187.4 152.631 187.4C146.631 187.4 140.298 186.867 133.631 185.8C132.298 185.667 131.631 184.8 131.631 183.2L132.631 158.4C132.631 157.467 132.898 156.8 133.431 156.4C133.965 156.133 134.631 156.133 135.431 156.4C140.898 157.6 145.965 158.2 150.631 158.2C158.231 158.2 164.231 156.467 168.631 153C173.031 149.533 175.231 144.067 175.231 136.6L173.831 138C169.031 142.8 162.098 145.2 153.031 145.2C144.231 145.2 136.165 143.267 128.831 139.4C121.498 135.533 116.231 128.733 113.031 119C110.898 112.6 109.831 104.733 109.831 95.4C109.831 85.1333 111.098 76.7333 113.631 70.2C116.698 61.9333 121.565 55.3333 128.231 50.4C135.031 45.4666 142.898 43 151.831 43C161.431 43 168.831 45.9333 174.031 51.8C174.298 52.0666 174.565 52.2 174.831 52.2C175.098 52.0666 175.231 51.8 175.231 51.4V47ZM173.431 110.2C174.631 107.133 175.231 102.133 175.231 95.2C175.231 91.6 175.098 88.8 174.831 86.8C174.565 84.6666 174.031 82.6666 173.231 80.8C172.165 77.8666 170.431 75.6 168.031 74C165.765 72.2666 162.965 71.4 159.631 71.4C153.365 71.4 148.898 74.5333 146.231 80.8C144.231 84.5333 143.231 89.4666 143.231 95.6C143.231 102.133 144.098 106.933 145.831 110C147.031 112.8 148.831 115.067 151.231 116.8C153.631 118.533 156.498 119.4 159.831 119.4C166.631 119.4 171.165 116.333 173.431 110.2Z" fill="#1F685C"/>
<path d="M280.127 43.2C284.927 43.2 288.66 44.0666 291.327 45.8C292.393 46.4666 292.793 47.4666 292.527 48.8L287.927 76.6C287.793 78.2 286.86 78.6666 285.127 78C282.727 77.4666 280.46 77.2 278.327 77.2C276.06 77.2 274.327 77.3333 273.127 77.6C268.993 78.1333 265.46 79.7333 262.527 82.4C259.727 85.0667 258.327 88.6 258.327 93V145.6C258.327 146.267 258.06 146.867 257.527 147.4C257.127 147.8 256.593 148 255.927 148H227.527C226.86 148 226.26 147.8 225.727 147.4C225.327 146.867 225.127 146.267 225.127 145.6V47C225.127 46.3333 225.327 45.8 225.727 45.4C226.26 44.8666 226.86 44.6 227.527 44.6H255.927C256.593 44.6 257.127 44.8666 257.527 45.4C258.06 45.8 258.327 46.3333 258.327 47V53.4C258.327 53.8 258.46 54.0666 258.727 54.2C258.993 54.3333 259.193 54.2 259.327 53.8C264.66 46.7333 271.593 43.2 280.127 43.2Z" fill="#1F685C"/>
<path d="M320.256 35.4C315.19 35.4 310.99 33.8 307.656 30.6C304.456 27.2666 302.856 23.0666 302.856 18C302.856 12.8 304.456 8.59998 307.656 5.39997C310.99 2.19997 315.19 0.599976 320.256 0.599976C325.323 0.599976 329.456 2.19997 332.656 5.39997C335.99 8.59998 337.656 12.8 337.656 18C337.656 22.9333 335.99 27.0666 332.656 30.4C329.456 33.7333 325.323 35.4 320.256 35.4ZM305.856 148C305.19 148 304.59 147.8 304.056 147.4C303.656 146.867 303.456 146.267 303.456 145.6V47C303.456 46.3333 303.656 45.8 304.056 45.4C304.59 44.8666 305.19 44.6 305.856 44.6H334.256C334.923 44.6 335.456 44.8666 335.856 45.4C336.39 45.8 336.656 46.3333 336.656 47V145.6C336.656 146.267 336.39 146.867 335.856 147.4C335.456 147.8 334.923 148 334.256 148H305.856Z" fill="#1F685C"/>
<path d="M473.2 43C483.6 43 491.733 46.2 497.6 52.6C503.467 59 506.4 68 506.4 79.6V145.6C506.4 146.267 506.133 146.867 505.6 147.4C505.2 147.8 504.667 148 504 148H475.8C475.133 148 474.533 147.8 474 147.4C473.6 146.867 473.4 146.267 473.4 145.6V86.8C473.4 82.2666 472.2 78.6 469.8 75.8C467.533 72.8666 464.467 71.4 460.6 71.4C456.733 71.4 453.533 72.8 451 75.6C448.6 78.4 447.4 82.1333 447.4 86.8V145.6C447.4 146.267 447.133 146.867 446.6 147.4C446.2 147.8 445.667 148 445 148H416.6C415.933 148 415.333 147.8 414.8 147.4C414.4 146.867 414.2 146.267 414.2 145.6V86.8C414.2 82.2666 412.933 78.6 410.4 75.8C408 72.8666 404.867 71.4 401 71.4C397.4 71.4 394.4 72.5333 392 74.8C389.6 77.0666 388.133 80.0666 387.6 83.8V145.6C387.6 146.267 387.333 146.867 386.8 147.4C386.4 147.8 385.867 148 385.2 148H356.8C356.133 148 355.533 147.8 355 147.4C354.6 146.867 354.4 146.267 354.4 145.6V47C354.4 46.3333 354.6 45.8 355 45.4C355.533 44.8666 356.133 44.6 356.8 44.6H385.2C385.867 44.6 386.4 44.8666 386.8 45.4C387.333 45.8 387.6 46.3333 387.6 47V56C387.6 56.5333 387.733 56.8666 388 57C388.267 57 388.533 56.7333 388.8 56.2C394 47.4 402.533 43 414.4 43C421.067 43 426.933 44.4666 432 47.4C437.067 50.3333 440.933 54.6 443.6 60.2C444 61 444.4 60.9333 444.8 60C447.6 54.2666 451.4 50 456.2 47.2C461.133 44.4 466.8 43 473.2 43Z" fill="#CBA66F"/>
<path d="M565.569 43C574.502 43 582.569 44.5333 589.769 47.6C596.969 50.5333 602.635 54.6666 606.769 60C610.902 65.2 612.969 71 612.969 77.4V145.6C612.969 146.267 612.702 146.867 612.169 147.4C611.769 147.8 611.235 148 610.569 148H582.169C581.502 148 580.902 147.8 580.369 147.4C579.969 146.867 579.769 146.267 579.769 145.6V138.6C579.769 138.067 579.635 137.8 579.369 137.8C579.102 137.667 578.835 137.867 578.569 138.4C573.502 145.867 564.835 149.6 552.569 149.6C541.902 149.6 533.369 147.133 526.969 142.2C520.702 137.133 517.569 129.733 517.569 120C517.569 109.733 521.102 101.8 528.169 96.2C535.369 90.6 545.769 87.8 559.369 87.8H578.769C579.435 87.8 579.769 87.4666 579.769 86.8V83C579.769 79.4 578.569 76.6 576.169 74.6C573.769 72.4666 570.435 71.4 566.169 71.4C562.969 71.4 560.169 72 557.769 73.2C555.502 74.4 554.035 75.9333 553.369 77.8C552.702 79.2666 551.769 79.9333 550.569 79.8L521.769 76C520.169 75.7333 519.369 75.1333 519.369 74.2C519.902 68.3333 522.169 63.0666 526.169 58.4C530.302 53.6 535.769 49.8666 542.569 47.2C549.502 44.4 557.169 43 565.569 43ZM562.369 125.8C567.435 125.8 571.569 124.533 574.769 122C578.102 119.333 579.769 115.867 579.769 111.6V106.8C579.769 106.133 579.435 105.8 578.769 105.8H566.769C561.702 105.8 557.769 106.667 554.969 108.4C552.302 110.133 550.969 112.733 550.969 116.2C550.969 119.133 551.969 121.467 553.969 123.2C555.969 124.933 558.769 125.8 562.369 125.8Z" fill="#CBA66F"/>
<path d="M684.4 43.2C689.2 43.2 692.933 44.0666 695.6 45.8C696.667 46.4666 697.067 47.4666 696.8 48.8L692.2 76.6C692.067 78.2 691.133 78.6666 689.4 78C687 77.4666 684.733 77.2 682.6 77.2C680.333 77.2 678.6 77.3333 677.4 77.6C673.267 78.1333 669.733 79.7333 666.8 82.4C664 85.0667 662.6 88.6 662.6 93V145.6C662.6 146.267 662.333 146.867 661.8 147.4C661.4 147.8 660.867 148 660.2 148H631.8C631.133 148 630.533 147.8 630 147.4C629.6 146.867 629.4 146.267 629.4 145.6V47C629.4 46.3333 629.6 45.8 630 45.4C630.533 44.8666 631.133 44.6 631.8 44.6H660.2C660.867 44.6 661.4 44.8666 661.8 45.4C662.333 45.8 662.6 46.3333 662.6 47V53.4C662.6 53.8 662.733 54.0666 663 54.2C663.267 54.3333 663.467 54.2 663.6 53.8C668.933 46.7333 675.867 43.2 684.4 43.2Z" fill="#CBA66F"/>
<path d="M709.73 148C709.063 148 708.463 147.8 707.93 147.4C707.53 146.867 707.33 146.267 707.33 145.6V10.4C707.33 9.73331 707.53 9.19998 707.93 8.79998C708.463 8.26664 709.063 7.99998 709.73 7.99998H738.13C738.796 7.99998 739.33 8.26664 739.73 8.79998C740.263 9.19998 740.53 9.73331 740.53 10.4V72.6C740.53 73 740.663 73.2666 740.93 73.4C741.196 73.4 741.463 73.2666 741.73 73L763.53 46C764.33 45.0666 765.33 44.6 766.53 44.6H799.13C800.463 44.6 801.13 45.0666 801.13 46C801.13 46.4 800.93 46.9333 800.53 47.6L774.33 81.4C774.063 81.8 774.063 82.2667 774.33 82.8L804.13 145.2C804.396 145.733 804.53 146.133 804.53 146.4C804.53 147.467 803.796 148 802.33 148H772.73C771.396 148 770.463 147.4 769.93 146.2L751.73 103.6C751.596 103.333 751.33 103.2 750.93 103.2C750.663 103.067 750.463 103.133 750.33 103.4L740.93 116.8C740.663 117.333 740.53 117.733 740.53 118V145.6C740.53 146.267 740.263 146.867 739.73 147.4C739.33 147.8 738.796 148 738.13 148H709.73Z" fill="#CBA66F"/>
<path d="M900.981 87.2C901.648 91.2 901.848 96.4667 901.581 103C901.448 104.6 900.581 105.4 898.981 105.4H837.981C837.715 105.4 837.448 105.533 837.181 105.8C836.915 105.933 836.848 106.133 836.981 106.4C837.248 107.867 837.915 109.8 838.981 112.2C840.581 115 842.981 117.267 846.181 119C849.381 120.733 853.315 121.6 857.981 121.6C866.381 121.6 872.981 118.867 877.781 113.4C878.315 112.733 878.915 112.4 879.581 112.4C880.248 112.4 880.781 112.667 881.181 113.2L896.581 130.8C897.115 131.2 897.381 131.733 897.381 132.4C897.381 132.933 897.115 133.467 896.581 134C891.915 139.067 886.115 142.933 879.181 145.6C872.381 148.267 864.915 149.6 856.781 149.6C844.648 149.6 834.315 147 825.781 141.8C817.381 136.467 811.315 129.067 807.581 119.6C804.781 112.933 803.381 104.6 803.381 94.6C803.381 87.6667 804.448 81 806.581 74.6C810.048 64.7333 815.715 57 823.581 51.4C831.581 45.6666 841.048 42.8 851.981 42.8C860.781 42.8 868.648 44.7333 875.581 48.6C882.515 52.3333 888.115 57.6 892.381 64.4C896.781 71.0666 899.648 78.6666 900.981 87.2ZM851.981 71.4C845.048 71.4 840.448 74.6666 838.181 81.2C837.648 82.6666 837.315 84.0666 837.181 85.4C836.915 86.0666 837.181 86.4 837.981 86.4H866.381C866.915 86.4 867.181 86.1333 867.181 85.6C867.181 84.5333 866.915 83.2 866.381 81.6C865.448 78.2666 863.715 75.7333 861.181 74C858.781 72.2666 855.715 71.4 851.981 71.4Z" fill="#CBA66F"/>
<path d="M976.403 68.8C976.403 69.4666 976.136 70.0666 975.603 70.6C975.203 71 974.67 71.2 974.003 71.2H955.803C955.136 71.2 954.803 71.5333 954.803 72.2V108.6C954.803 116.2 957.87 120 964.003 120H971.403C972.07 120 972.603 120.267 973.003 120.8C973.536 121.2 973.803 121.733 973.803 122.4V145.6C973.803 147.067 973.003 147.933 971.403 148.2C965.003 148.467 960.336 148.6 957.403 148.6C945.803 148.6 937.203 146.8 931.603 143.2C926.003 139.467 923.136 132.467 923.003 122.2V72.2C923.003 71.5333 922.67 71.2 922.003 71.2H910.603C909.936 71.2 909.336 71 908.803 70.6C908.403 70.0666 908.203 69.4666 908.203 68.8V47C908.203 46.3333 908.403 45.8 908.803 45.4C909.336 44.8666 909.936 44.6 910.603 44.6H922.003C922.67 44.6 923.003 44.2666 923.003 43.6V19.4C923.003 18.7333 923.203 18.2 923.603 17.8C924.136 17.2666 924.736 17 925.403 17H952.403C953.07 17 953.603 17.2666 954.003 17.8C954.536 18.2 954.803 18.7333 954.803 19.4V43.6C954.803 44.2666 955.136 44.6 955.803 44.6H974.003C974.67 44.6 975.203 44.8666 975.603 45.4C976.136 45.8 976.403 46.3333 976.403 47V68.8Z" fill="#CBA66F"/>
</svg>
