<svg width="392" height="94" viewBox="0 0 392 94" fill="none" xmlns="http://www.w3.org/2000/svg">
<path d="M19.2826 16.7966C22.8713 16.7966 26.1118 17.404 29.0042 18.6188C31.8966 19.7809 34.173 21.4183 35.8335 23.531C37.4939 25.591 38.3241 27.8887 38.3241 30.424V57.4411C38.3241 57.7052 38.217 57.9429 38.0028 58.1542C37.8421 58.3126 37.6278 58.3919 37.36 58.3919H25.9511C25.6833 58.3919 25.4423 58.3126 25.228 58.1542C25.0674 57.9429 24.987 57.7052 24.987 57.4411V54.6681C24.987 54.4568 24.9334 54.3512 24.8263 54.3512C24.7192 54.2984 24.6121 54.3776 24.5049 54.5889C22.4696 57.5468 18.988 59.0257 14.0602 59.0257C9.7752 59.0257 6.34718 58.0485 3.77617 56.0942C1.25872 54.0871 0 51.1556 0 47.2998C0 43.2327 1.41941 40.0899 4.25824 37.8715C7.15062 35.6531 11.3285 34.5439 16.7919 34.5439H24.5853C24.8531 34.5439 24.987 34.4118 24.987 34.1478V32.6424C24.987 31.2163 24.5049 30.1071 23.5408 29.3148C22.5767 28.4697 21.2376 28.0471 19.5236 28.0471C18.2381 28.0471 17.1133 28.2848 16.1492 28.7602C15.2386 29.2355 14.6494 29.843 14.3816 30.5824C14.1138 31.1635 13.7388 31.4276 13.2568 31.3747L1.68723 29.8694C1.04447 29.7637 0.723097 29.5261 0.723097 29.1563C0.937348 26.8323 1.84791 24.7459 3.4548 22.8972C5.11524 20.9957 7.31131 19.5168 10.043 18.4604C12.8283 17.3512 15.9081 16.7966 19.2826 16.7966ZM17.9971 49.5974C20.0325 49.5974 21.6929 49.0956 22.9784 48.0921C24.3175 47.0357 24.987 45.6624 24.987 43.9722V42.0707C24.987 41.8066 24.8531 41.6745 24.5853 41.6745H19.7646C17.7293 41.6745 16.1492 42.0178 15.0243 42.7045C13.9531 43.3911 13.4175 44.4211 13.4175 45.7944C13.4175 46.9565 13.8192 47.8808 14.6226 48.5675C15.4261 49.2541 16.5509 49.5974 17.9971 49.5974Z" fill="white"/>
<path d="M70.1529 18.3812C70.1529 18.1171 70.2333 17.9058 70.394 17.7473C70.6082 17.536 70.8492 17.4304 71.1171 17.4304H82.5259C82.7937 17.4304 83.008 17.536 83.1687 17.7473C83.3829 17.9058 83.4901 18.1171 83.4901 18.3812V53.7966C83.4901 61.0328 81.3743 66.2091 77.1429 69.3255C72.9114 72.4418 67.5551 74 61.0741 74C58.6637 74 56.1195 73.7887 53.4414 73.3662C52.9057 73.3133 52.6379 72.97 52.6379 72.3362L53.0396 62.5118C53.0396 62.142 53.1468 61.8779 53.361 61.7195C53.5753 61.6138 53.8431 61.6138 54.1645 61.7195C56.3605 62.1949 58.3959 62.4325 60.2706 62.4325C63.3237 62.4325 65.734 61.7459 67.5016 60.3726C69.2691 58.9993 70.1529 56.8337 70.1529 53.8758L69.5905 54.4304C67.6623 56.3319 64.877 57.2827 61.2347 57.2827C57.6996 57.2827 54.4591 56.5168 51.5131 54.985C48.5672 53.4532 46.4514 50.7595 45.1659 46.9036C44.3089 44.3683 43.8804 41.252 43.8804 37.5546C43.8804 33.4875 44.3893 30.1599 45.407 27.5717C46.6389 24.2969 48.5939 21.6824 51.2721 19.7281C54.0038 17.7737 57.164 16.7966 60.7527 16.7966C64.6092 16.7966 67.5819 17.9586 69.6709 20.2827C69.778 20.3883 69.8851 20.4411 69.9922 20.4411C70.0994 20.3883 70.1529 20.2827 70.1529 20.1242V18.3812ZM69.4298 43.4176C69.9119 42.2027 70.1529 40.222 70.1529 37.4754C70.1529 36.0493 70.0994 34.94 69.9922 34.1478C69.8851 33.3026 69.6709 32.5103 69.3495 31.7709C68.921 30.6089 68.2247 29.7109 67.2606 29.0771C66.35 28.3904 65.2252 28.0471 63.8861 28.0471C61.3686 28.0471 59.5743 29.2884 58.503 31.7709C57.6996 33.2498 57.2979 35.2041 57.2979 37.6338C57.2979 40.222 57.646 42.1235 58.3424 43.3383C58.8244 44.4475 59.5475 45.3455 60.5116 46.0321C61.4758 46.7188 62.6274 47.0621 63.9664 47.0621C66.6981 47.0621 68.5193 45.8472 69.4298 43.4176Z" fill="white"/>
<path d="M112.292 16.8758C114.22 16.8758 115.72 17.2191 116.791 17.9058C117.219 18.1699 117.38 18.566 117.273 19.0942L115.425 30.1071C115.371 30.7409 114.996 30.9258 114.3 30.6617C113.336 30.4504 112.425 30.3448 111.568 30.3448C110.658 30.3448 109.962 30.3976 109.479 30.5032C107.819 30.7145 106.4 31.3483 105.221 32.4047C104.096 33.4611 103.534 34.8608 103.534 36.6039V57.4411C103.534 57.7052 103.427 57.9429 103.213 58.1542C103.052 58.3126 102.838 58.3919 102.57 58.3919H91.161C90.8932 58.3919 90.6522 58.3126 90.4379 58.1542C90.2772 57.9429 90.1969 57.7052 90.1969 57.4411V18.3812C90.1969 18.1171 90.2772 17.9058 90.4379 17.7473C90.6522 17.536 90.8932 17.4304 91.161 17.4304H102.57C102.838 17.4304 103.052 17.536 103.213 17.7473C103.427 17.9058 103.534 18.1171 103.534 18.3812V20.9165C103.534 21.0749 103.588 21.1806 103.695 21.2334C103.802 21.2862 103.882 21.2334 103.936 21.0749C106.078 18.2755 108.863 16.8758 112.292 16.8758Z" fill="white"/>
<path d="M128.412 13.7859C126.377 13.7859 124.69 13.152 123.351 11.8844C122.065 10.5639 121.422 8.90007 121.422 6.89293C121.422 4.83298 122.065 3.16917 123.351 1.9015C124.69 0.633833 126.377 0 128.412 0C130.448 0 132.108 0.633833 133.394 1.9015C134.733 3.16917 135.402 4.83298 135.402 6.89293C135.402 8.84725 134.733 10.4847 133.394 11.8051C132.108 13.1256 130.448 13.7859 128.412 13.7859ZM122.628 58.3919C122.36 58.3919 122.119 58.3126 121.905 58.1542C121.744 57.9429 121.664 57.7052 121.664 57.4411V18.3812C121.664 18.1171 121.744 17.9058 121.905 17.7473C122.119 17.536 122.36 17.4304 122.628 17.4304H134.037C134.304 17.4304 134.519 17.536 134.679 17.7473C134.894 17.9058 135.001 18.1171 135.001 18.3812V57.4411C135.001 57.7052 134.894 57.9429 134.679 58.1542C134.519 58.3126 134.304 58.3919 134.037 58.3919H122.628Z" fill="white"/>
<path d="M189.853 16.7966C194.031 16.7966 197.298 18.0642 199.655 20.5996C202.012 23.1349 203.19 26.7002 203.19 31.2955V57.4411C203.19 57.7052 203.083 57.9429 202.869 58.1542C202.708 58.3126 202.494 58.3919 202.226 58.3919H190.898C190.63 58.3919 190.389 58.3126 190.174 58.1542C190.014 57.9429 189.933 57.7052 189.933 57.4411V34.1478C189.933 32.3519 189.451 30.8994 188.487 29.7901C187.577 28.6281 186.345 28.0471 184.791 28.0471C183.238 28.0471 181.953 28.6017 180.935 29.7109C179.971 30.8201 179.489 32.2991 179.489 34.1478V57.4411C179.489 57.7052 179.382 57.9429 179.167 58.1542C179.007 58.3126 178.792 58.3919 178.525 58.3919H167.116C166.848 58.3919 166.607 58.3126 166.393 58.1542C166.232 57.9429 166.152 57.7052 166.152 57.4411V34.1478C166.152 32.3519 165.643 30.8994 164.625 29.7901C163.661 28.6281 162.402 28.0471 160.849 28.0471C159.403 28.0471 158.197 28.4961 157.233 29.394C156.269 30.2919 155.68 31.4804 155.466 32.9593V57.4411C155.466 57.7052 155.359 57.9429 155.144 58.1542C154.984 58.3126 154.769 58.3919 154.502 58.3919H143.093C142.825 58.3919 142.584 58.3126 142.37 58.1542C142.209 57.9429 142.129 57.7052 142.129 57.4411V18.3812C142.129 18.1171 142.209 17.9058 142.37 17.7473C142.584 17.536 142.825 17.4304 143.093 17.4304H154.502C154.769 17.4304 154.984 17.536 155.144 17.7473C155.359 17.9058 155.466 18.1171 155.466 18.3812V21.9465C155.466 22.1577 155.519 22.2898 155.626 22.3426C155.734 22.3426 155.841 22.237 155.948 22.0257C158.037 18.5396 161.465 16.7966 166.232 16.7966C168.91 16.7966 171.267 17.3776 173.302 18.5396C175.338 19.7016 176.891 21.3919 177.962 23.6103C178.123 23.9272 178.284 23.9008 178.444 23.531C179.569 21.2598 181.096 19.5696 183.024 18.4604C185.006 17.3512 187.282 16.7966 189.853 16.7966Z" fill="white"/>
<path d="M226.959 16.7966C230.548 16.7966 233.789 17.404 236.681 18.6188C239.573 19.7809 241.85 21.4183 243.51 23.531C245.171 25.591 246.001 27.8887 246.001 30.424V57.4411C246.001 57.7052 245.894 57.9429 245.68 58.1542C245.519 58.3126 245.305 58.3919 245.037 58.3919H233.628C233.36 58.3919 233.119 58.3126 232.905 58.1542C232.744 57.9429 232.664 57.7052 232.664 57.4411V54.6681C232.664 54.4568 232.61 54.3512 232.503 54.3512C232.396 54.2984 232.289 54.3776 232.182 54.5889C230.146 57.5468 226.665 59.0257 221.737 59.0257C217.452 59.0257 214.024 58.0485 211.453 56.0942C208.936 54.0871 207.677 51.1556 207.677 47.2998C207.677 43.2327 209.096 40.0899 211.935 37.8715C214.827 35.6531 219.005 34.5439 224.469 34.5439H232.262C232.53 34.5439 232.664 34.4118 232.664 34.1478V32.6424C232.664 31.2163 232.182 30.1071 231.218 29.3148C230.254 28.4697 228.914 28.0471 227.2 28.0471C225.915 28.0471 224.79 28.2848 223.826 28.7602C222.915 29.2355 222.326 29.843 222.058 30.5824C221.791 31.1635 221.416 31.4276 220.934 31.3747L209.364 29.8694C208.721 29.7637 208.4 29.5261 208.4 29.1563C208.614 26.8323 209.525 24.7459 211.132 22.8972C212.792 20.9957 214.988 19.5168 217.72 18.4604C220.505 17.3512 223.585 16.7966 226.959 16.7966ZM225.674 49.5974C227.709 49.5974 229.37 49.0956 230.655 48.0921C231.994 47.0357 232.664 45.6624 232.664 43.9722V42.0707C232.664 41.8066 232.53 41.6745 232.262 41.6745H227.442C225.406 41.6745 223.826 42.0178 222.701 42.7045C221.63 43.3911 221.094 44.4211 221.094 45.7944C221.094 46.9565 221.496 47.8808 222.3 48.5675C223.103 49.2541 224.228 49.5974 225.674 49.5974Z" fill="white"/>
<path d="M274.696 16.8758C276.625 16.8758 278.124 17.2191 279.196 17.9058C279.624 18.1699 279.785 18.566 279.678 19.0942L277.83 30.1071C277.776 30.7409 277.401 30.9258 276.705 30.6617C275.741 30.4504 274.83 30.3448 273.973 30.3448C273.063 30.3448 272.366 30.3976 271.884 30.5032C270.224 30.7145 268.805 31.3483 267.626 32.4047C266.501 33.4611 265.939 34.8608 265.939 36.6039V57.4411C265.939 57.7052 265.832 57.9429 265.618 58.1542C265.457 58.3126 265.243 58.3919 264.975 58.3919H253.566C253.298 58.3919 253.057 58.3126 252.843 58.1542C252.682 57.9429 252.602 57.7052 252.602 57.4411V18.3812C252.602 18.1171 252.682 17.9058 252.843 17.7473C253.057 17.536 253.298 17.4304 253.566 17.4304H264.975C265.243 17.4304 265.457 17.536 265.618 17.7473C265.832 17.9058 265.939 18.1171 265.939 18.3812V20.9165C265.939 21.0749 265.992 21.1806 266.1 21.2334C266.207 21.2862 266.287 21.2334 266.341 21.0749C268.483 18.2755 271.268 16.8758 274.696 16.8758Z" fill="white"/>
<path d="M284.872 58.3919C284.604 58.3919 284.363 58.3126 284.149 58.1542C283.988 57.9429 283.908 57.7052 283.908 57.4411V3.88223C283.908 3.61813 283.988 3.40685 284.149 3.24839C284.363 3.03712 284.604 2.93148 284.872 2.93148H296.281C296.549 2.93148 296.763 3.03712 296.923 3.24839C297.138 3.40685 297.245 3.61813 297.245 3.88223V28.5225C297.245 28.6809 297.298 28.7866 297.406 28.8394C297.513 28.8394 297.62 28.7866 297.727 28.6809L306.484 17.985C306.806 17.6153 307.208 17.4304 307.69 17.4304H320.786C321.321 17.4304 321.589 17.6153 321.589 17.985C321.589 18.1435 321.509 18.3547 321.348 18.6188L310.823 32.0086C310.716 32.167 310.716 32.3519 310.823 32.5632L322.794 57.2827C322.901 57.4939 322.955 57.6524 322.955 57.758C322.955 58.1806 322.66 58.3919 322.071 58.3919H310.18C309.645 58.3919 309.27 58.1542 309.055 57.6788L301.744 40.803C301.691 40.6974 301.583 40.6445 301.423 40.6445C301.316 40.5917 301.235 40.6181 301.182 40.7238L297.406 46.0321C297.298 46.2434 297.245 46.4019 297.245 46.5075V57.4411C297.245 57.7052 297.138 57.9429 296.923 58.1542C296.763 58.3126 296.549 58.3919 296.281 58.3919H284.872Z" fill="white"/>
<path d="M361.701 34.3062C361.969 35.8908 362.05 37.9772 361.943 40.5653C361.889 41.1991 361.541 41.5161 360.898 41.5161H336.393C336.286 41.5161 336.179 41.5689 336.072 41.6745C335.965 41.7273 335.938 41.8066 335.991 41.9122C336.099 42.4932 336.366 43.2591 336.795 44.2099C337.438 45.3191 338.402 46.217 339.687 46.9036C340.973 47.5903 342.553 47.9336 344.428 47.9336C347.802 47.9336 350.453 46.8508 352.382 44.6852C352.596 44.4211 352.837 44.2891 353.105 44.2891C353.372 44.2891 353.587 44.3947 353.747 44.606L359.934 51.5782C360.148 51.7366 360.255 51.9479 360.255 52.212C360.255 52.4233 360.148 52.6345 359.934 52.8458C358.059 54.853 355.729 56.3847 352.944 57.4411C350.212 58.4975 347.213 59.0257 343.945 59.0257C339.071 59.0257 334.92 57.9957 331.492 55.9358C328.118 53.823 325.681 50.8915 324.181 47.1413C323.056 44.5004 322.494 41.1991 322.494 37.2377C322.494 34.4911 322.922 31.8501 323.779 29.3148C325.172 25.4061 327.448 22.3426 330.608 20.1242C333.822 17.853 337.625 16.7173 342.017 16.7173C345.552 16.7173 348.713 17.4832 351.498 19.015C354.283 20.4939 356.533 22.5803 358.247 25.2741C360.014 27.9151 361.166 30.9258 361.701 34.3062ZM342.017 28.0471C339.232 28.0471 337.384 29.3412 336.473 31.9293C336.259 32.5104 336.125 33.065 336.072 33.5931C335.965 33.8572 336.072 33.9893 336.393 33.9893H347.802C348.016 33.9893 348.123 33.8837 348.123 33.6724C348.123 33.2498 348.016 32.7216 347.802 32.0878C347.427 30.7673 346.731 29.7637 345.713 29.0771C344.749 28.3904 343.517 28.0471 342.017 28.0471Z" fill="white"/>
<path d="M392 27.0171C392 27.2812 391.893 27.5189 391.679 27.7302C391.518 27.8887 391.304 27.9679 391.036 27.9679H383.725C383.457 27.9679 383.323 28.0999 383.323 28.364V42.7837C383.323 45.7944 384.555 47.2998 387.019 47.2998H389.991C390.259 47.2998 390.473 47.4054 390.634 47.6167C390.848 47.7752 390.956 47.9864 390.956 48.2505V57.4411C390.956 58.0221 390.634 58.3655 389.991 58.4711C387.42 58.5767 385.546 58.6296 384.367 58.6296C379.707 58.6296 376.253 57.9165 374.003 56.4904C371.753 55.0114 370.602 52.2384 370.548 48.1713V28.364C370.548 28.0999 370.414 27.9679 370.146 27.9679H365.567C365.299 27.9679 365.058 27.8887 364.844 27.7302C364.683 27.5189 364.603 27.2812 364.603 27.0171V18.3812C364.603 18.1171 364.683 17.9058 364.844 17.7473C365.058 17.536 365.299 17.4304 365.567 17.4304H370.146C370.414 17.4304 370.548 17.2984 370.548 17.0343V7.44754C370.548 7.18344 370.628 6.97217 370.789 6.81371C371.003 6.60243 371.244 6.49679 371.512 6.49679H382.359C382.627 6.49679 382.841 6.60243 383.001 6.81371C383.216 6.97217 383.323 7.18344 383.323 7.44754V17.0343C383.323 17.2984 383.457 17.4304 383.725 17.4304H391.036C391.304 17.4304 391.518 17.536 391.679 17.7473C391.893 17.9058 392 18.1171 392 18.3812V27.0171Z" fill="white"/>
<path d="M112.507 68.088C112.507 68.248 112.427 68.328 112.267 68.328H103.195C103.131 68.328 103.099 68.36 103.099 68.424V74.904C103.099 74.968 103.131 75 103.195 75H109.627C109.787 75 109.867 75.08 109.867 75.24V75.888C109.867 76.048 109.787 76.128 109.627 76.128H103.195C103.131 76.128 103.099 76.16 103.099 76.224V83.76C103.099 83.92 103.019 84 102.859 84H102.067C101.907 84 101.827 83.92 101.827 83.76V67.44C101.827 67.28 101.907 67.2 102.067 67.2H112.267C112.427 67.2 112.507 67.28 112.507 67.44V68.088ZM122.359 72.144C122.359 71.984 122.439 71.904 122.599 71.904H123.367C123.527 71.904 123.607 71.984 123.607 72.144V83.76C123.607 83.92 123.527 84 123.367 84H122.599C122.439 84 122.359 83.92 122.359 83.76V82.584C122.359 82.536 122.343 82.512 122.311 82.512C122.279 82.496 122.255 82.512 122.239 82.56C121.903 83.088 121.447 83.488 120.871 83.76C120.311 84.032 119.647 84.168 118.879 84.168C117.695 84.168 116.711 83.816 115.927 83.112C115.143 82.408 114.751 81.44 114.751 80.208V72.144C114.751 71.984 114.831 71.904 114.991 71.904H115.759C115.919 71.904 115.999 71.984 115.999 72.144V79.872C115.999 80.832 116.279 81.6 116.839 82.176C117.415 82.752 118.175 83.04 119.119 83.04C120.095 83.04 120.879 82.752 121.471 82.176C122.063 81.584 122.359 80.816 122.359 79.872V72.144ZM132.827 72.744C132.827 72.904 132.747 72.984 132.587 72.984H129.779C129.715 72.984 129.683 73.016 129.683 73.08V80.664C129.683 81.48 129.867 82.056 130.235 82.392C130.603 82.712 131.195 82.872 132.011 82.872H132.563C132.723 82.872 132.803 82.952 132.803 83.112V83.76C132.803 83.92 132.723 84 132.563 84L131.843 84.024C130.723 84.024 129.875 83.808 129.299 83.376C128.739 82.944 128.451 82.152 128.435 81V73.08C128.435 73.016 128.403 72.984 128.339 72.984H126.899C126.739 72.984 126.659 72.904 126.659 72.744V72.144C126.659 71.984 126.739 71.904 126.899 71.904H128.339C128.403 71.904 128.435 71.872 128.435 71.808V69.072C128.435 68.912 128.515 68.832 128.675 68.832H129.443C129.603 68.832 129.683 68.912 129.683 69.072V71.808C129.683 71.872 129.715 71.904 129.779 71.904H132.587C132.747 71.904 132.827 71.984 132.827 72.144V72.744ZM143.828 72.144C143.828 71.984 143.908 71.904 144.068 71.904H144.836C144.996 71.904 145.076 71.984 145.076 72.144V83.76C145.076 83.92 144.996 84 144.836 84H144.068C143.908 84 143.828 83.92 143.828 83.76V82.584C143.828 82.536 143.812 82.512 143.78 82.512C143.748 82.496 143.724 82.512 143.708 82.56C143.372 83.088 142.916 83.488 142.34 83.76C141.78 84.032 141.116 84.168 140.348 84.168C139.164 84.168 138.18 83.816 137.396 83.112C136.612 82.408 136.22 81.44 136.22 80.208V72.144C136.22 71.984 136.3 71.904 136.46 71.904H137.228C137.388 71.904 137.468 71.984 137.468 72.144V79.872C137.468 80.832 137.748 81.6 138.308 82.176C138.884 82.752 139.644 83.04 140.588 83.04C141.564 83.04 142.348 82.752 142.94 82.176C143.532 81.584 143.828 80.816 143.828 79.872V72.144ZM153.816 71.808C154.36 71.808 154.824 71.904 155.208 72.096C155.336 72.144 155.384 72.248 155.352 72.408L155.136 73.176C155.088 73.336 154.984 73.384 154.824 73.32C154.504 73.192 154.104 73.136 153.624 73.152C152.728 73.168 151.984 73.512 151.392 74.184C150.816 74.84 150.528 75.648 150.528 76.608V83.76C150.528 83.92 150.448 84 150.288 84H149.496C149.336 84 149.256 83.92 149.256 83.76V72.144C149.256 71.984 149.336 71.904 149.496 71.904H150.288C150.448 71.904 150.528 71.984 150.528 72.144V73.776C150.528 73.824 150.536 73.856 150.552 73.872C150.584 73.872 150.608 73.848 150.624 73.8C150.96 73.176 151.392 72.688 151.92 72.336C152.464 71.984 153.096 71.808 153.816 71.808ZM162.179 84.192C161.059 84.192 160.099 83.896 159.299 83.304C158.499 82.712 157.955 81.92 157.667 80.928C157.491 80.288 157.403 79.288 157.403 77.928C157.403 76.568 157.491 75.576 157.667 74.952C157.955 73.96 158.491 73.176 159.275 72.6C160.075 72.008 161.051 71.712 162.203 71.712C163.323 71.712 164.283 72.008 165.083 72.6C165.899 73.192 166.443 73.976 166.715 74.952C166.811 75.32 166.875 75.736 166.907 76.2C166.939 76.648 166.955 77.224 166.955 77.928C166.955 78.664 166.939 79.256 166.907 79.704C166.875 80.152 166.811 80.56 166.715 80.928C166.443 81.92 165.899 82.712 165.083 83.304C164.283 83.896 163.315 84.192 162.179 84.192ZM162.179 83.064C163.027 83.064 163.747 82.832 164.339 82.368C164.947 81.888 165.339 81.264 165.515 80.496C165.627 80.064 165.683 79.216 165.683 77.952C165.683 76.672 165.635 75.824 165.539 75.408C165.363 74.624 164.971 74 164.363 73.536C163.771 73.072 163.043 72.84 162.179 72.84C161.315 72.84 160.587 73.072 159.995 73.536C159.403 74 159.019 74.624 158.843 75.408C158.731 75.904 158.675 76.752 158.675 77.952C158.675 79.152 158.731 80 158.843 80.496C159.019 81.28 159.403 81.904 159.995 82.368C160.587 82.832 161.315 83.064 162.179 83.064ZM179.321 84.12C178.457 84.12 177.689 83.984 177.017 83.712C176.361 83.424 175.849 83.04 175.481 82.56C175.113 82.08 174.929 81.552 174.929 80.976V80.664C174.929 80.504 175.009 80.424 175.169 80.424H175.913C176.073 80.424 176.153 80.504 176.153 80.664V80.928C176.153 81.52 176.449 82.032 177.041 82.464C177.633 82.88 178.385 83.088 179.297 83.088C180.193 83.088 180.921 82.872 181.481 82.44C182.041 82.008 182.321 81.472 182.321 80.832C182.321 80.384 182.177 80.016 181.889 79.728C181.601 79.44 181.257 79.224 180.857 79.08C180.473 78.92 179.889 78.72 179.105 78.48C178.209 78.208 177.489 77.952 176.945 77.712C176.401 77.472 175.937 77.136 175.553 76.704C175.185 76.256 175.001 75.696 175.001 75.024C175.001 74.048 175.385 73.272 176.153 72.696C176.937 72.104 177.961 71.808 179.225 71.808C180.073 71.808 180.817 71.952 181.457 72.24C182.113 72.512 182.617 72.888 182.969 73.368C183.337 73.848 183.521 74.392 183.521 75V75.072C183.521 75.232 183.441 75.312 183.281 75.312H182.537C182.377 75.312 182.297 75.232 182.297 75.072V75C182.297 74.392 182.009 73.888 181.433 73.488C180.873 73.072 180.129 72.864 179.201 72.864C178.305 72.864 177.585 73.056 177.041 73.44C176.497 73.808 176.225 74.312 176.225 74.952C176.225 75.56 176.473 76.016 176.969 76.32C177.481 76.624 178.273 76.936 179.345 77.256C180.273 77.528 181.009 77.784 181.553 78.024C182.113 78.264 182.593 78.608 182.993 79.056C183.393 79.488 183.593 80.056 183.593 80.76C183.593 81.768 183.201 82.584 182.417 83.208C181.649 83.816 180.617 84.12 179.321 84.12ZM194.406 72.144C194.406 71.984 194.486 71.904 194.646 71.904H195.414C195.574 71.904 195.654 71.984 195.654 72.144V83.76C195.654 83.92 195.574 84 195.414 84H194.646C194.486 84 194.406 83.92 194.406 83.76V82.584C194.406 82.536 194.39 82.512 194.358 82.512C194.326 82.496 194.302 82.512 194.286 82.56C193.95 83.088 193.494 83.488 192.918 83.76C192.358 84.032 191.694 84.168 190.926 84.168C189.742 84.168 188.758 83.816 187.974 83.112C187.19 82.408 186.798 81.44 186.798 80.208V72.144C186.798 71.984 186.878 71.904 187.038 71.904H187.806C187.966 71.904 188.046 71.984 188.046 72.144V79.872C188.046 80.832 188.326 81.6 188.886 82.176C189.462 82.752 190.222 83.04 191.166 83.04C192.142 83.04 192.926 82.752 193.518 82.176C194.11 81.584 194.406 80.816 194.406 79.872V72.144ZM203.602 84.12C202.738 84.12 201.97 83.984 201.298 83.712C200.642 83.424 200.13 83.04 199.762 82.56C199.394 82.08 199.21 81.552 199.21 80.976V80.664C199.21 80.504 199.29 80.424 199.45 80.424H200.194C200.354 80.424 200.434 80.504 200.434 80.664V80.928C200.434 81.52 200.73 82.032 201.322 82.464C201.914 82.88 202.666 83.088 203.578 83.088C204.474 83.088 205.202 82.872 205.762 82.44C206.322 82.008 206.602 81.472 206.602 80.832C206.602 80.384 206.458 80.016 206.17 79.728C205.882 79.44 205.538 79.224 205.138 79.08C204.754 78.92 204.17 78.72 203.386 78.48C202.49 78.208 201.77 77.952 201.226 77.712C200.682 77.472 200.218 77.136 199.834 76.704C199.466 76.256 199.282 75.696 199.282 75.024C199.282 74.048 199.666 73.272 200.434 72.696C201.218 72.104 202.242 71.808 203.506 71.808C204.354 71.808 205.098 71.952 205.738 72.24C206.394 72.512 206.898 72.888 207.25 73.368C207.618 73.848 207.802 74.392 207.802 75V75.072C207.802 75.232 207.722 75.312 207.562 75.312H206.818C206.658 75.312 206.578 75.232 206.578 75.072V75C206.578 74.392 206.29 73.888 205.714 73.488C205.154 73.072 204.41 72.864 203.482 72.864C202.586 72.864 201.866 73.056 201.322 73.44C200.778 73.808 200.506 74.312 200.506 74.952C200.506 75.56 200.754 76.016 201.25 76.32C201.762 76.624 202.554 76.936 203.626 77.256C204.554 77.528 205.29 77.784 205.834 78.024C206.394 78.264 206.874 78.608 207.274 79.056C207.674 79.488 207.874 80.056 207.874 80.76C207.874 81.768 207.482 82.584 206.698 83.208C205.93 83.816 204.898 84.12 203.602 84.12ZM216.312 72.744C216.312 72.904 216.232 72.984 216.072 72.984H213.264C213.2 72.984 213.168 73.016 213.168 73.08V80.664C213.168 81.48 213.352 82.056 213.72 82.392C214.088 82.712 214.68 82.872 215.496 82.872H216.048C216.208 82.872 216.288 82.952 216.288 83.112V83.76C216.288 83.92 216.208 84 216.048 84L215.328 84.024C214.208 84.024 213.36 83.808 212.784 83.376C212.224 82.944 211.936 82.152 211.92 81V73.08C211.92 73.016 211.888 72.984 211.824 72.984H210.384C210.224 72.984 210.144 72.904 210.144 72.744V72.144C210.144 71.984 210.224 71.904 210.384 71.904H211.824C211.888 71.904 211.92 71.872 211.92 71.808V69.072C211.92 68.912 212 68.832 212.16 68.832H212.928C213.088 68.832 213.168 68.912 213.168 69.072V71.808C213.168 71.872 213.2 71.904 213.264 71.904H216.072C216.232 71.904 216.312 71.984 216.312 72.144V72.744ZM224.01 83.064C224.762 83.064 225.402 82.896 225.93 82.56C226.474 82.208 226.898 81.728 227.202 81.12C227.282 80.976 227.386 80.936 227.514 81L228.138 81.312C228.282 81.392 228.322 81.496 228.258 81.624C227.906 82.408 227.346 83.032 226.578 83.496C225.826 83.96 224.938 84.192 223.914 84.192C222.794 84.192 221.842 83.92 221.058 83.376C220.274 82.832 219.738 82.088 219.45 81.144C219.322 80.744 219.234 80.296 219.186 79.8C219.138 79.304 219.114 78.68 219.114 77.928C219.114 77.144 219.122 76.552 219.138 76.152C219.17 75.752 219.226 75.384 219.306 75.048C219.562 74.04 220.082 73.232 220.866 72.624C221.666 72.016 222.642 71.712 223.794 71.712C225.106 71.712 226.154 72.056 226.938 72.744C227.722 73.416 228.21 74.352 228.402 75.552C228.45 75.856 228.482 76.216 228.498 76.632C228.514 77.032 228.522 77.536 228.522 78.144C228.522 78.304 228.442 78.384 228.282 78.384H220.458C220.394 78.384 220.362 78.416 220.362 78.48C220.362 79.504 220.402 80.184 220.482 80.52C220.658 81.304 221.05 81.928 221.658 82.392C222.282 82.84 223.066 83.064 224.01 83.064ZM220.53 75.336C220.45 75.64 220.394 76.264 220.362 77.208C220.362 77.272 220.394 77.304 220.458 77.304H227.154C227.218 77.304 227.25 77.272 227.25 77.208C227.25 76.408 227.21 75.808 227.13 75.408C226.954 74.64 226.57 74.024 225.978 73.56C225.386 73.08 224.658 72.84 223.794 72.84C222.93 72.84 222.21 73.072 221.634 73.536C221.058 73.984 220.69 74.584 220.53 75.336ZM236.977 71.736C238.209 71.736 239.201 72.112 239.953 72.864C240.721 73.616 241.105 74.608 241.105 75.84V83.76C241.105 83.92 241.025 84 240.865 84H240.073C239.913 84 239.833 83.92 239.833 83.76V76.08C239.833 75.136 239.545 74.368 238.969 73.776C238.393 73.168 237.641 72.864 236.713 72.864C235.753 72.864 234.977 73.16 234.385 73.752C233.793 74.328 233.497 75.088 233.497 76.032V83.76C233.497 83.92 233.417 84 233.257 84H232.465C232.305 84 232.225 83.92 232.225 83.76V72.144C232.225 71.984 232.305 71.904 232.465 71.904H233.257C233.417 71.904 233.497 71.984 233.497 72.144V73.32C233.497 73.368 233.505 73.4 233.521 73.416C233.553 73.416 233.577 73.4 233.593 73.368C233.945 72.84 234.409 72.44 234.985 72.168C235.561 71.88 236.225 71.736 236.977 71.736ZM250.155 72.744C250.155 72.904 250.075 72.984 249.915 72.984H247.107C247.043 72.984 247.011 73.016 247.011 73.08V80.664C247.011 81.48 247.195 82.056 247.563 82.392C247.931 82.712 248.523 82.872 249.339 82.872H249.891C250.051 82.872 250.131 82.952 250.131 83.112V83.76C250.131 83.92 250.051 84 249.891 84L249.171 84.024C248.051 84.024 247.203 83.808 246.627 83.376C246.067 82.944 245.779 82.152 245.763 81V73.08C245.763 73.016 245.731 72.984 245.667 72.984H244.227C244.067 72.984 243.987 72.904 243.987 72.744V72.144C243.987 71.984 244.067 71.904 244.227 71.904H245.667C245.731 71.904 245.763 71.872 245.763 71.808V69.072C245.763 68.912 245.843 68.832 246.003 68.832H246.771C246.931 68.832 247.011 68.912 247.011 69.072V71.808C247.011 71.872 247.043 71.904 247.107 71.904H249.915C250.075 71.904 250.155 71.984 250.155 72.144V72.744ZM257.748 71.712C259.156 71.712 260.228 72.08 260.964 72.816C261.7 73.536 262.068 74.512 262.068 75.744V83.76C262.068 83.92 261.988 84 261.828 84H261.036C260.876 84 260.796 83.92 260.796 83.76V82.632C260.796 82.6 260.78 82.576 260.748 82.56C260.732 82.544 260.708 82.552 260.676 82.584C260.26 83.112 259.716 83.512 259.044 83.784C258.388 84.056 257.652 84.192 256.836 84.192C255.732 84.192 254.796 83.912 254.028 83.352C253.26 82.792 252.876 81.936 252.876 80.784C252.876 79.6 253.316 78.664 254.196 77.976C255.076 77.288 256.284 76.944 257.82 76.944H260.7C260.764 76.944 260.796 76.912 260.796 76.848V75.768C260.796 74.872 260.54 74.16 260.028 73.632C259.532 73.104 258.764 72.84 257.724 72.84C256.908 72.84 256.236 73.008 255.708 73.344C255.18 73.68 254.852 74.128 254.724 74.688C254.676 74.848 254.58 74.92 254.436 74.904L253.596 74.784C253.42 74.752 253.348 74.688 253.38 74.592C253.524 73.728 253.988 73.032 254.772 72.504C255.572 71.976 256.564 71.712 257.748 71.712ZM257.052 83.088C258.06 83.088 258.932 82.84 259.668 82.344C260.42 81.848 260.796 81.16 260.796 80.28V78.096C260.796 78.032 260.764 78 260.7 78H257.94C256.804 78 255.884 78.24 255.18 78.72C254.492 79.2 254.148 79.864 254.148 80.712C254.148 81.496 254.42 82.088 254.964 82.488C255.508 82.888 256.204 83.088 257.052 83.088ZM257.1 70.296C257.004 70.296 256.94 70.272 256.908 70.224C256.876 70.16 256.884 70.088 256.932 70.008L258.396 67.368C258.444 67.256 258.54 67.2 258.684 67.2H259.38C259.476 67.2 259.54 67.232 259.572 67.296C259.604 67.344 259.596 67.408 259.548 67.488L257.94 70.128C257.86 70.24 257.764 70.296 257.652 70.296H257.1ZM268.764 84C268.62 84 268.524 83.936 268.476 83.808L264.492 72.168L264.468 72.072C264.468 71.96 264.54 71.904 264.684 71.904H265.596C265.74 71.904 265.836 71.968 265.884 72.096L269.148 82.032C269.164 82.064 269.188 82.08 269.22 82.08C269.252 82.08 269.276 82.064 269.292 82.032L272.556 72.096C272.604 71.968 272.7 71.904 272.844 71.904L273.732 71.928C273.908 71.928 273.972 72.016 273.924 72.192L269.964 83.808C269.916 83.936 269.82 84 269.676 84H268.764ZM281.08 83.064C281.832 83.064 282.472 82.896 283 82.56C283.544 82.208 283.968 81.728 284.272 81.12C284.352 80.976 284.456 80.936 284.584 81L285.208 81.312C285.352 81.392 285.392 81.496 285.328 81.624C284.976 82.408 284.416 83.032 283.648 83.496C282.896 83.96 282.008 84.192 280.984 84.192C279.864 84.192 278.912 83.92 278.128 83.376C277.344 82.832 276.808 82.088 276.52 81.144C276.392 80.744 276.304 80.296 276.256 79.8C276.208 79.304 276.184 78.68 276.184 77.928C276.184 77.144 276.192 76.552 276.208 76.152C276.24 75.752 276.296 75.384 276.376 75.048C276.632 74.04 277.152 73.232 277.936 72.624C278.736 72.016 279.712 71.712 280.864 71.712C282.176 71.712 283.224 72.056 284.008 72.744C284.792 73.416 285.28 74.352 285.472 75.552C285.52 75.856 285.552 76.216 285.568 76.632C285.584 77.032 285.592 77.536 285.592 78.144C285.592 78.304 285.512 78.384 285.352 78.384H277.528C277.464 78.384 277.432 78.416 277.432 78.48C277.432 79.504 277.472 80.184 277.552 80.52C277.728 81.304 278.12 81.928 278.728 82.392C279.352 82.84 280.136 83.064 281.08 83.064ZM277.6 75.336C277.52 75.64 277.464 76.264 277.432 77.208C277.432 77.272 277.464 77.304 277.528 77.304H284.224C284.288 77.304 284.32 77.272 284.32 77.208C284.32 76.408 284.28 75.808 284.2 75.408C284.024 74.64 283.64 74.024 283.048 73.56C282.456 73.08 281.728 72.84 280.864 72.84C280 72.84 279.28 73.072 278.704 73.536C278.128 73.984 277.76 74.584 277.6 75.336ZM289.535 84C289.375 84 289.295 83.92 289.295 83.76V67.44C289.295 67.28 289.375 67.2 289.535 67.2H290.327C290.487 67.2 290.567 67.28 290.567 67.44V83.76C290.567 83.92 290.487 84 290.327 84H289.535Z" fill="#FEF1E1"/>
</svg>
